<svg width="31" height="30" viewBox="0 0 31 30" fill="none" xmlns="http://www.w3.org/2000/svg">
<path d="M30.0896 0.373455C29.9582 0.241942 29.7928 0.149632 29.612 0.106886C29.4311 0.0641392 29.2419 0.0726474 29.0656 0.131455L1.46557 9.33146C1.28137 9.39274 1.11899 9.50631 0.998238 9.65831C0.87749 9.81032 0.803595 9.99418 0.785571 10.1875C0.767546 10.3808 0.80617 10.5751 0.896732 10.7468C0.987293 10.9185 1.12587 11.0602 1.29557 11.1545L12.8746 17.5865L19.3066 29.1655C19.3932 29.3213 19.5199 29.4511 19.6736 29.5414C19.8273 29.6318 20.0023 29.6795 20.1806 29.6795C20.2106 29.6795 20.2426 29.6795 20.2736 29.6745C20.4667 29.6565 20.6505 29.5828 20.8025 29.4622C20.9545 29.3416 21.0681 29.1795 21.1296 28.9955L30.3296 1.39546C30.3882 1.2196 30.3968 1.0309 30.3545 0.850429C30.3121 0.669958 30.2204 0.50482 30.0896 0.373455ZM4.25657 10.5135L25.6806 3.36846L13.5616 15.4875C13.5264 15.5312 13.4952 15.578 13.4686 15.6275L4.25657 10.5135ZM19.9566 26.2135L14.8396 17.0015C14.889 16.9748 14.9358 16.9437 14.9796 16.9085L27.0946 4.78246L19.9566 26.2135Z" fill="black"/>
</svg>
