<svg xmlns="http://www.w3.org/2000/svg" width="20" height="18" viewBox="0 0 20 18" fill="currentColor"><path d="M19.9719 10.1335C19.9719 10.1334 19.9719 10.1334 19.9718 10.1333L16.1958 0.651867C16.1156 0.450411 15.8873 0.352063 15.6858 0.432204C15.6857 0.432253 15.6855 0.432302 15.6854 0.4324L0.366301 6.53231C0.303827 6.5593 0.249648 6.60239 0.209259 6.65716C0.0818582 6.72336 0.00137412 6.85439 0 6.99794V17.2057C0 17.4225 0.175789 17.5983 0.392605 17.5983H16.882C17.0988 17.5983 17.2746 17.4225 17.2746 17.2057V11.6307L19.7528 10.6437C19.9542 10.5633 20.0523 10.3349 19.9719 10.1335ZM16.4894 16.8131H0.785211V7.39054H16.4894V16.8131ZM6.55062 6.6073L13.1244 3.98783C13.7111 4.60452 14.524 4.95502 15.3752 4.95835L16.0309 6.6073H6.55062ZM17.2746 10.7874V6.99794C17.2746 6.78112 17.0988 6.60533 16.882 6.60533H16.8757L16.0438 4.51589C16.0346 4.49847 16.0238 4.48188 16.0116 4.46642C15.9695 4.27733 15.7944 4.14831 15.6013 4.16411C14.8094 4.2363 14.0346 3.90269 13.5429 3.27761C13.4206 3.12661 13.2055 3.08906 13.0392 3.18967C13.0206 3.19188 13.0021 3.19531 12.9838 3.19988L4.95821 6.39568C4.86109 6.43377 4.7834 6.50929 4.74267 6.60533H2.30538L15.6116 1.30712L19.0975 10.0603L17.2746 10.7874Z"/><path d="M1.85063 14.1626C2.61288 14.3879 3.20934 14.9837 3.43558 15.7456C3.4852 15.9119 3.63816 16.0259 3.8117 16.0259C3.83206 16.0246 3.85228 16.0216 3.87216 16.0169C3.88978 16.0219 3.90779 16.0256 3.92594 16.0279H13.3485C13.3647 16.0258 13.3807 16.0225 13.3964 16.0181C13.5925 16.0658 13.7902 15.9455 13.838 15.7493C13.8381 15.7486 13.8383 15.7479 13.8384 15.7472C14.0641 14.9844 14.6607 14.3879 15.4234 14.1622C15.6084 14.1057 15.7233 13.9214 15.6927 13.7304C15.698 13.7113 15.7017 13.6919 15.7041 13.6723V10.5314C15.7018 10.5117 15.6979 10.4923 15.6923 10.4733C15.7231 10.2823 15.6081 10.0978 15.423 10.0414C14.6603 9.81584 14.0638 9.21903 13.8388 8.4561C13.782 8.26986 13.5959 8.15463 13.4038 8.18677C13.3857 8.18172 13.3672 8.17804 13.3485 8.17578H3.92594C3.90617 8.17814 3.88659 8.18206 3.86745 8.18756C3.67649 8.15713 3.49226 8.27202 3.43558 8.45689C3.20978 9.21947 2.61327 9.81584 1.85063 10.0414C1.66567 10.098 1.55073 10.2823 1.58131 10.4733C1.5762 10.4924 1.57252 10.5118 1.57031 10.5314V13.6723C1.57257 13.6907 1.57625 13.709 1.58131 13.7268C1.54911 13.9191 1.66429 14.1054 1.85063 14.1626ZM2.35552 10.6908C3.14387 10.3742 3.76871 9.74934 4.08534 8.96099H13.1887C13.5055 9.74934 14.1304 10.3742 14.9189 10.6908V13.5129C14.1308 13.8298 13.5061 14.4546 13.1891 15.2427H4.08534C3.76836 14.4546 3.14363 13.8298 2.35552 13.5129V10.6908Z"/><path d="M8.63688 14.4574C9.93788 14.4574 10.9925 13.4027 10.9925 12.1017C10.9925 10.8007 9.93788 9.74609 8.63688 9.74609C7.33589 9.74609 6.28125 10.8007 6.28125 12.1017C6.28253 13.4022 7.33643 14.4561 8.63688 14.4574ZM8.63688 10.5313C9.5042 10.5313 10.2073 11.2344 10.2073 12.1017C10.2073 12.969 9.5042 13.6721 8.63688 13.6721C7.76957 13.6721 7.06646 12.969 7.06646 12.1017C7.06646 11.2344 7.76957 10.5313 8.63688 10.5313Z"/><path d="M4.31938 12.6915C4.6446 12.6915 4.90828 12.4278 4.90828 12.1026C4.90828 11.7774 4.6446 11.5137 4.31938 11.5137C3.99415 11.5137 3.73047 11.7774 3.73047 12.1026C3.73047 12.4279 3.99415 12.6915 4.31938 12.6915ZM4.31938 11.9063C4.42778 11.9063 4.51568 11.9942 4.51568 12.1026C4.51568 12.211 4.42778 12.2989 4.31938 12.2989C4.21097 12.2989 4.12307 12.211 4.12307 12.1026C4.12307 11.9942 4.21097 11.9063 4.31938 11.9063Z"/><path d="M12.9561 12.6915C13.2813 12.6915 13.545 12.4278 13.545 12.1026C13.545 11.7774 13.2813 11.5137 12.9561 11.5137C12.6309 11.5137 12.3672 11.7774 12.3672 12.1026C12.3672 12.4279 12.6309 12.6915 12.9561 12.6915ZM12.9561 11.9063C13.0645 11.9063 13.1524 11.9942 13.1524 12.1026C13.1524 12.211 13.0645 12.2989 12.9561 12.2989C12.8477 12.2989 12.7598 12.211 12.7598 12.1026C12.7598 11.9942 12.8477 11.9063 12.9561 11.9063Z"/></svg>