<svg xmlns="http://www.w3.org/2000/svg" width="48" height="50" viewBox="0 0 48 50" fill="none"><path d="M23.9967 32.3156C28.4347 32.3156 32.0324 28.7179 32.0324 24.2799C32.0324 19.8419 28.4347 16.2441 23.9967 16.2441C19.5586 16.2441 15.9609 19.8419 15.9609 24.2799C15.9609 28.7179 19.5586 32.3156 23.9967 32.3156Z" stroke="currentColor" stroke-width="2" stroke-linecap="round" stroke-linejoin="round"/><path d="M38.2824 48.3865C36.9303 45.7631 34.882 43.5627 32.3621 42.0266C29.8422 40.4904 26.9479 39.6777 23.9967 39.6777C21.0454 39.6777 18.1511 40.4904 15.6312 42.0266C13.1113 43.5627 11.063 45.7631 9.71094 48.3865" stroke="currentColor" stroke-width="2" stroke-linecap="round" stroke-linejoin="round"/><path d="M41.856 37.887C44.3905 34.5814 45.9493 30.6324 46.3564 26.4869C46.7634 22.3414 46.0023 18.1647 44.1592 14.4292C42.3161 10.6937 39.4646 7.54847 35.9271 5.34919C32.3895 3.14992 28.3072 1.98438 24.1418 1.98438C19.9763 1.98438 15.894 3.14992 12.3564 5.34919C8.81892 7.54847 5.96736 10.6937 4.12427 14.4292C2.28119 18.1647 1.52012 22.3414 1.92714 26.4869C2.33417 30.6324 3.89305 34.5814 6.42747 37.887" stroke="currentColor" stroke-width="2" stroke-linecap="round" stroke-linejoin="round"/></svg>