<svg xmlns="http://www.w3.org/2000/svg" width="50" height="46" viewBox="0 0 50 46" fill="none"><path d="M16.0826 44.4542C23.9724 44.4542 30.3683 38.0583 30.3683 30.1685C30.3683 22.2787 23.9724 15.8828 16.0826 15.8828C8.1928 15.8828 1.79688 22.2787 1.79688 30.1685C1.79688 38.0583 8.1928 44.4542 16.0826 44.4542Z" stroke="currentColor" stroke-width="2" stroke-linecap="round" stroke-linejoin="round"/><path d="M33.9342 44.4542C41.8239 44.4542 48.2199 38.0583 48.2199 30.1685C48.2199 22.2787 41.8239 15.8828 33.9342 15.8828C26.0444 15.8828 19.6484 22.2787 19.6484 30.1685C19.6484 38.0583 26.0444 44.4542 33.9342 44.4542Z" stroke="currentColor" stroke-width="2" stroke-linecap="round" stroke-linejoin="round"/><path d="M25.0044 30.1671C32.8941 30.1671 39.2901 23.7712 39.2901 15.8814C39.2901 7.99163 32.8941 1.5957 25.0044 1.5957C17.1146 1.5957 10.7188 7.99163 10.7188 15.8814C10.7188 23.7712 17.1146 30.1671 25.0044 30.1671Z" stroke="currentColor" stroke-width="2" stroke-linecap="round" stroke-linejoin="round"/></svg>