<svg xmlns="http://www.w3.org/2000/svg" width="42" height="42" viewBox="0 0 42 42" fill="none"><path d="M20.5766 28.7017C28.6143 28.7017 35.1302 22.5005 35.1302 14.8508C35.1302 7.20124 28.6143 1 20.5766 1C12.5388 1 6.02295 7.20124 6.02295 14.8508C6.02295 22.5005 12.5388 28.7017 20.5766 28.7017Z" stroke="currentColor" stroke-width="1.5" stroke-linecap="round" stroke-linejoin="round"/><path d="M20.5742 21.0062C24.1466 21.0062 27.0425 18.2501 27.0425 14.8503C27.0425 11.4504 24.1466 8.69434 20.5742 8.69434C17.0019 8.69434 14.106 11.4504 14.106 14.8503C14.106 18.2501 17.0019 21.0062 20.5742 21.0062Z" stroke="currentColor" stroke-width="1.5" stroke-linecap="round" stroke-linejoin="round"/><path d="M17.7594 28.4547L14.9133 39.8432C14.857 40.0596 14.7529 40.2621 14.6079 40.4373C14.4629 40.6124 14.2804 40.7561 14.0725 40.8589C13.853 40.9495 13.6164 40.9963 13.3771 40.9963C13.1379 40.9963 12.9012 40.9495 12.6818 40.8589L1.94445 36.3958C1.71923 36.2945 1.52105 36.1459 1.36479 35.9613C1.20853 35.7766 1.09826 35.5607 1.04224 35.3297C0.986222 35.0986 0.985918 34.8585 1.04135 34.6274C1.09678 34.3962 1.20651 34.1801 1.3623 33.995L9.67404 24.084" stroke="currentColor" stroke-width="1.5" stroke-linecap="round" stroke-linejoin="round"/><path d="M24.2314 28.3026L27.1422 39.845C27.2001 40.0651 27.3083 40.2703 27.4593 40.4459C27.6103 40.6215 27.8002 40.7631 28.0154 40.8607C28.2288 40.9525 28.4603 41 28.6946 41C28.9288 41 29.1603 40.9525 29.3737 40.8607L40.0464 36.3977C40.275 36.2975 40.4759 36.148 40.6331 35.961C40.7903 35.774 40.8995 35.5546 40.9519 35.3204C41.0133 35.0912 41.0159 34.8514 40.9596 34.6211C40.9033 34.3908 40.7898 34.1767 40.6285 33.9968L31.961 23.501" stroke="currentColor" stroke-width="1.5" stroke-linecap="round" stroke-linejoin="round"/></svg>