<?xml version="1.0" encoding="UTF-8" standalone="no"?>
<svg xmlns="http://www.w3.org/2000/svg" width="24" height="25" viewBox="0 0 2048 1459">
  <path d="M 145.00 603.00 L 137.00 749.00 L 150.00 855.00 L 194.00 991.00 L 249.00 1090.00 L 338.00 1192.00 L 433.00 1261.00 L 531.00 1302.00 L 638.00 1321.00 L 758.00 1315.00 L 854.00 1286.00 L 928.00 1241.00 L 1071.00 1113.00 L 1150.00 1076.00 L 1263.00 1054.00 L 1520.00 1028.00 L 1636.00 1001.00 L 1741.00 960.00 L 1809.00 912.00 L 1859.00 849.00 L 1892.00 766.00 L 1910.00 647.00 L 1895.00 516.00 L 1850.00 387.00 L 1792.00 296.00 L 1708.00 232.00 L 1631.00 213.00 L 1552.00 215.00 L 1313.00 296.00 L 1225.00 306.00 L 1125.00 280.00 L 863.00 161.00 L 708.00 137.00 L 600.00 141.00 L 507.00 160.00 L 411.00 199.00 L 333.00 251.00 L 266.00 318.00 L 207.00 408.00 L 174.00 485.00 Z" fill="#142157" />
</svg>
