<svg xmlns="http://www.w3.org/2000/svg" width="500" height="500" viewBox="0 0 500 500"><path d="M 454.00 62.00 L 419.00 47.00 L 370.00 39.00 L 311.00 42.00 L 280.00 52.00 L 255.00 67.00 L 230.00 99.00 L 221.00 129.00 L 221.00 176.00 L 173.00 57.00 L 68.00 56.00 L 98.00 95.00 L 103.00 125.00 L 4.00 354.00 L 1.00 397.00 L 12.00 422.00 L 42.00 438.00 L 82.00 432.00 L 108.00 407.00 L 144.00 342.00 L 166.00 328.00 L 188.00 341.00 L 203.00 369.00 L 209.00 392.00 L 203.00 438.00 L 398.00 437.00 L 437.00 427.00 L 472.00 407.00 L 487.00 389.00 L 498.00 355.00 L 497.00 304.00 L 482.00 269.00 L 445.00 234.00 L 312.00 156.00 L 290.00 137.00 L 275.00 107.00 L 280.00 75.00 L 294.00 59.00 L 317.00 50.00 L 357.00 54.00 L 387.00 72.00 L 411.00 96.00 L 444.00 147.00 L 458.00 182.00 L 464.00 182.00 L 462.00 80.00 Z M 235.00 210.00 L 239.00 213.00 L 240.00 217.00 L 244.00 219.00 L 252.00 230.00 L 254.00 230.00 L 263.00 240.00 L 274.00 246.00 L 281.00 253.00 L 284.00 253.00 L 289.00 258.00 L 297.00 261.00 L 298.00 263.00 L 311.00 269.00 L 312.00 271.00 L 315.00 271.00 L 316.00 273.00 L 321.00 274.00 L 327.00 278.00 L 333.00 279.00 L 334.00 281.00 L 348.00 287.00 L 352.00 291.00 L 357.00 292.00 L 361.00 296.00 L 365.00 297.00 L 371.00 302.00 L 374.00 302.00 L 376.00 305.00 L 379.00 305.00 L 383.00 309.00 L 403.00 320.00 L 407.00 325.00 L 416.00 331.00 L 429.00 349.00 L 432.00 361.00 L 434.00 362.00 L 434.00 383.00 L 432.00 384.00 L 432.00 388.00 L 430.00 389.00 L 429.00 394.00 L 427.00 395.00 L 426.00 399.00 L 420.00 407.00 L 413.00 411.00 L 410.00 415.00 L 399.00 418.00 L 398.00 420.00 L 357.00 420.00 L 355.00 418.00 L 350.00 418.00 L 349.00 416.00 L 342.00 415.00 L 341.00 413.00 L 327.00 407.00 L 319.00 400.00 L 317.00 400.00 L 301.00 384.00 L 292.00 367.00 L 288.00 363.00 L 287.00 356.00 L 285.00 355.00 L 285.00 351.00 L 283.00 350.00 L 282.00 341.00 L 280.00 340.00 L 279.00 333.00 L 277.00 332.00 L 274.00 320.00 L 272.00 319.00 L 272.00 315.00 L 270.00 314.00 L 269.00 305.00 L 267.00 304.00 L 267.00 300.00 L 265.00 299.00 L 264.00 292.00 L 262.00 291.00 L 259.00 279.00 L 257.00 278.00 L 254.00 264.00 L 252.00 263.00 L 251.00 256.00 L 249.00 255.00 L 246.00 243.00 L 244.00 242.00 L 244.00 238.00 L 242.00 237.00 L 241.00 228.00 L 239.00 227.00 L 238.00 220.00 L 236.00 219.00 L 236.00 215.00 L 234.00 214.00 Z M 233.00 208.00 L 234.00 207.00 L 235.00 209.00 L 234.00 210.00 Z M 231.00 205.00 L 233.00 204.00 L 234.00 206.00 L 233.00 207.00 Z M 229.00 201.00 L 230.00 200.00 L 232.00 201.00 L 231.00 202.00 Z M 224.00 182.00 L 226.00 183.00 L 226.00 187.00 L 225.00 188.00 L 223.00 184.00 Z M 221.00 177.00 L 223.00 176.00 L 224.00 177.00 L 224.00 179.00 L 222.00 180.00 L 221.00 179.00 Z M 113.00 132.00 L 116.00 136.00 L 117.00 144.00 L 121.00 149.00 L 122.00 158.00 L 126.00 162.00 L 127.00 171.00 L 129.00 172.00 L 130.00 179.00 L 132.00 180.00 L 132.00 184.00 L 134.00 185.00 L 135.00 193.00 L 139.00 198.00 L 140.00 206.00 L 144.00 211.00 L 145.00 220.00 L 147.00 221.00 L 148.00 228.00 L 150.00 229.00 L 150.00 233.00 L 152.00 234.00 L 153.00 242.00 L 157.00 247.00 L 158.00 255.00 L 162.00 260.00 L 163.00 269.00 L 165.00 270.00 L 166.00 277.00 L 168.00 279.00 L 168.00 282.00 L 170.00 283.00 L 171.00 291.00 L 173.00 293.00 L 173.00 296.00 L 175.00 297.00 L 176.00 305.00 L 180.00 310.00 L 181.00 318.00 L 183.00 320.00 L 162.00 320.00 L 157.00 321.00 L 156.00 323.00 L 152.00 323.00 L 151.00 325.00 L 143.00 329.00 L 135.00 337.00 L 129.00 347.00 L 113.00 361.00 L 106.00 364.00 L 105.00 366.00 L 98.00 367.00 L 97.00 369.00 L 81.00 369.00 L 80.00 367.00 L 68.00 366.00 L 67.00 364.00 L 58.00 361.00 L 44.00 347.00 L 44.00 344.00 L 41.00 340.00 L 41.00 336.00 L 39.00 335.00 L 38.00 327.00 L 39.00 303.00 L 41.00 302.00 L 42.00 292.00 L 46.00 285.00 L 47.00 278.00 L 51.00 273.00 L 52.00 267.00 L 54.00 266.00 L 57.00 256.00 L 59.00 255.00 L 60.00 249.00 L 62.00 248.00 L 62.00 244.00 L 64.00 243.00 L 65.00 238.00 L 69.00 233.00 L 70.00 226.00 L 72.00 225.00 L 75.00 215.00 L 79.00 210.00 L 80.00 203.00 L 82.00 202.00 L 83.00 197.00 L 87.00 192.00 L 88.00 185.00 L 92.00 180.00 L 93.00 174.00 L 97.00 169.00 L 101.00 156.00 L 105.00 151.00 L 106.00 144.00 L 108.00 143.00 L 111.00 133.00 Z" fill="#1b1f3c"/></svg>